<svg width="97" height="97" viewBox="0 0 97 97" fill="none" xmlns="http://www.w3.org/2000/svg">
<g clip-path="url(#clip0)">
<path d="M95.074 4.43832C95.0183 4.4947 94.9507 4.54281 94.874 4.58265C94.4936 4.77058 94.0291 4.61497 93.8427 4.23461L92.4693 1.46829C92.2798 1.08793 92.4385 0.627877 92.8173 0.435438C93.1992 0.24751 93.6607 0.403115 93.8487 0.783483L95.2221 3.5513C95.3709 3.85424 95.3017 4.21055 95.074 4.43832V4.43832Z" fill="#545C66"/>
<path d="M92.3197 5.79599C92.2611 5.85462 92.1949 5.90198 92.1167 5.94257C91.7379 6.12975 91.2763 5.9749 91.0869 5.59453L89.715 2.82897C89.527 2.44785 89.6827 1.98705 90.063 1.79912C90.4419 1.60818 90.9034 1.76529 91.0929 2.14566L92.4663 4.91047C92.6159 5.21416 92.5475 5.56822 92.3197 5.79599Z" fill="#545C66"/>
<path d="M89.5486 7.16494C89.5313 7.18148 89.5163 7.19726 89.4975 7.21079C89.1727 7.48517 88.6894 7.44608 88.4188 7.11984L88.409 7.10631C88.3706 7.0582 88.3368 7.00933 88.3105 6.95371L86.9514 4.19942C86.762 3.81905 86.9221 3.3575 87.3009 3.16807C87.6813 2.98014 88.1444 3.13574 88.3308 3.51762L89.6824 6.25612C89.838 6.55229 89.7884 6.92289 89.5486 7.16494Z" fill="#545C66"/>
<path d="M86.7886 8.51939C86.733 8.57501 86.6638 8.62538 86.5872 8.66372C86.2038 8.85315 85.743 8.69604 85.5551 8.31417L84.1945 5.56364C84.0065 5.18177 84.1621 4.71947 84.5425 4.53379C84.9259 4.34436 85.3874 4.49997 85.5754 4.88109L86.9345 7.63387C87.0856 7.93756 87.0179 8.29011 86.7886 8.51939Z" fill="#545C66"/>
<path d="M84.0253 9.89127C83.9682 9.94614 83.899 9.99876 83.8216 10.0371C83.4412 10.225 82.9797 10.0694 82.7902 9.68755L81.4311 6.93477C81.2402 6.55365 81.3988 6.09285 81.7792 5.90342C82.1596 5.71549 82.6226 5.8711 82.809 6.25297L84.1711 9.00575C84.3237 9.30869 84.2546 9.665 84.0253 9.89127V9.89127Z" fill="#545C66"/>
<path d="M81.2723 11.2519C81.2167 11.3076 81.1475 11.3579 81.0708 11.397C80.6875 11.5857 80.2267 11.4293 80.0387 11.0475L78.6751 8.29317C78.4872 7.9128 78.6473 7.45275 79.0232 7.26182C79.405 7.07389 79.8681 7.22949 80.0545 7.61137L81.4196 10.3649C81.5677 10.6701 81.5016 11.0226 81.2723 11.2519V11.2519Z" fill="#545C66"/>
<path d="M21.7474 92.5919C25.0113 89.3265 22.8374 84.9733 22.8374 84.9733C22.8374 84.9733 18.4789 89.328 21.7474 92.5919ZM18.4789 69.73L25.0113 80.6148L26.1013 81.7033C31.543 87.148 28.2783 92.5904 28.2783 92.5904L29.999 94.723C25.3158 98.3162 18.6097 98.2298 8.6495 88.2703C-15.461 64.159 17.8926 58.8001 23.5643 54.304C29.2247 49.7968 33.2719 38.2346 40.7868 38.2346C43.3449 38.2256 31.7407 46.8914 40.8943 49.4931L42.049 50.6695L35.8999 56.6674L38.0739 58.8444L36.9854 59.9329L34.8099 62.1099L32.6315 59.9329L28.2783 64.2868L23.9243 68.64L20.6559 71.9055L18.4789 69.73Z" fill="black"/>
<path d="M36.9868 59.9342L38.0752 58.8457L40.2537 61.0227L42.8231 58.3887L43.9897 59.5305C44.5859 70.4056 53.9695 59.2584 53.9725 62.9591C53.9695 68.9713 44.9234 71.1355 41.364 74.8903C39.2742 77.0921 36.671 89.6209 30.0003 94.7243L28.2796 92.5917C28.2796 92.5917 31.5443 87.1493 26.1027 81.7046L25.0127 80.6161L27.1912 78.4392L25.0127 76.2637L28.2796 72.9968L32.6343 68.6428L36.9883 64.2896L34.8113 62.1127L36.9868 59.9342Z" fill="#ED5565"/>
<path d="M28.2782 92.5935C28.2782 92.5935 31.5444 87.1466 26.1012 81.7064L25.0127 80.6179L17.3933 70.8201L16.3048 69.7316C9.77169 63.1999 26.138 62.1423 36.9868 51.2251L39.3179 48.8948C39.7531 49.1165 40.2876 49.3225 40.8957 49.4931L42.7645 49.975L42.0503 50.6711L35.8998 56.6675L38.0768 58.8445L40.2568 61.0215L42.8261 58.3904L43.9251 57.2606L43.9898 59.5338C44.5874 70.4074 53.9695 59.2617 53.9725 62.9624C53.9695 68.9746 44.9264 71.1388 41.364 74.8936C39.2758 77.0924 36.6726 89.6212 30.0003 94.7276C28.769 95.674 27.3866 96.3611 25.8411 96.6873L28.2782 92.5935Z" fill="#E6E9ED"/>
<path d="M33.2075 86.5805C32.909 86.8805 32.4151 86.885 32.1143 86.585C31.8144 86.2865 31.8099 85.8009 32.1068 85.5009L32.1189 85.4919C32.4196 85.1912 32.9075 85.1912 33.2075 85.4919C33.5082 85.7919 33.5097 86.2783 33.2075 86.5805Z" fill="#CCD1D9"/>
<path d="M32.12 83.3137C31.8185 83.6152 31.3261 83.6197 31.0254 83.3198C30.7239 83.0198 30.7209 82.5364 31.0193 82.2372L31.0314 82.2251C31.3306 81.9267 31.82 81.9252 32.12 82.2251C32.4207 82.5266 32.4207 83.013 32.12 83.3137Z" fill="#CCD1D9"/>
<path d="M31.0316 80.0466C30.7316 80.3466 30.2377 80.3534 29.937 80.0527C29.6355 79.7527 29.6325 79.2693 29.931 78.9701L29.943 78.9581C30.2407 78.6596 30.7316 78.6581 31.0316 78.9581C31.3323 79.258 31.3338 79.7482 31.0316 80.0466Z" fill="#CCD1D9"/>
<path d="M22.8372 84.9731C22.8372 84.9731 25.0111 89.3263 21.7472 92.5918C18.4787 89.3278 22.8372 84.9731 22.8372 84.9731Z" fill="#656D78"/>
<path d="M81.217 18.9711L42.8232 58.3888L40.2538 61.0228L38.0753 58.8458L35.9014 56.6688L42.0504 50.6709L77.9501 15.7041C78.8574 14.8005 80.2488 12.2958 79.3453 11.39L80.7292 10.7052L83.4804 9.3461L86.2437 7.97272L88.9995 6.61136L89.0086 6.62565L91.7749 5.24926L94.5291 3.89166L95.9116 3.20459L97 6.44824C88.2929 12.9791 86.1144 17.3331 86.1144 17.3331C86.1144 17.3331 83.3955 16.7941 81.217 18.9711V18.9711Z" fill="#656D78"/>
<path d="M36.9866 64.2853C36.6866 64.5852 36.1988 64.5852 35.8981 64.2853L33.7564 62.1452C33.7444 62.1347 33.7339 62.1234 33.7226 62.1129L32.6341 61.0244C32.3342 60.7244 32.3342 60.2358 32.6341 59.9359C32.9348 59.636 33.4227 59.636 33.7226 59.9359L34.7758 60.989C34.7885 60.9996 34.7991 61.0101 34.8096 61.0214L36.9866 63.1968C37.2865 63.4968 37.285 63.9861 36.9866 64.2853V64.2853Z" fill="#CCD1D9"/>
<path d="M28.2766 72.9938C27.9729 73.2938 27.4881 73.2938 27.1866 72.9938L23.9257 69.7314C23.625 69.4315 23.625 68.9436 23.9257 68.6429C24.2256 68.343 24.7135 68.343 25.0142 68.6429L28.2766 71.9054C28.5781 72.2075 28.5766 72.6924 28.2766 72.9938Z" fill="#CCD1D9"/>
<path d="M32.6299 68.6384C32.3299 68.9391 31.8421 68.9391 31.5414 68.6384L28.2782 65.3782C27.9775 65.0775 27.979 64.5897 28.2782 64.2897C28.5811 63.989 29.066 63.989 29.3682 64.2897L32.6299 67.5499C32.9321 67.8521 32.9321 68.3385 32.6299 68.6384Z" fill="#CCD1D9"/>
<path d="M83.3215 14.6863L23.3632 74.6476C23.0633 74.9476 22.5754 74.9476 22.2748 74.6476C21.9748 74.3469 21.9748 73.8591 22.2748 73.5591L82.2331 13.5978C82.533 13.2979 83.0209 13.2964 83.3215 13.5978C83.6245 13.9 83.6245 14.3864 83.3215 14.6863Z" fill="#F5F7FA"/>
<path d="M94.401 1.32526C94.3439 1.38163 94.2747 1.43125 94.198 1.47109L92.8126 2.15289C92.4307 2.34082 91.9669 2.18522 91.7813 1.80184C91.5933 1.42072 91.7549 0.961426 92.1316 0.771993L93.5162 0.0901876C93.8981 -0.0977411 94.3582 0.057864 94.5476 0.439735C94.6979 0.742676 94.6288 1.09673 94.401 1.32526V1.32526Z" fill="#656D78"/>
<path d="M91.6364 2.69502C91.5778 2.75365 91.5071 2.80477 91.4304 2.84311L90.054 3.52491C89.6752 3.71585 89.2084 3.56174 89.0189 3.18138C88.8265 2.80477 88.9806 2.33795 89.3625 2.14852L90.7509 1.4607C91.1328 1.27277 91.5966 1.42988 91.7815 1.81326C91.9303 2.1162 91.8612 2.46875 91.6364 2.69502V2.69502Z" fill="#656D78"/>
<path d="M88.8809 4.05495C88.8252 4.10983 88.7561 4.16094 88.6809 4.19928L87.297 4.88635C86.9136 5.07353 86.4528 4.91867 86.2656 4.5353C86.0777 4.15192 86.2393 3.69413 86.6159 3.50545L87.9923 2.82289C88.3727 2.63045 88.8365 2.78606 89.0274 3.16492C89.1778 3.46937 89.1086 3.82718 88.8809 4.05495V4.05495Z" fill="#656D78"/>
<path d="M86.1172 5.42595C86.0586 5.48308 85.9894 5.5327 85.9143 5.57254L84.5394 6.24983C84.1575 6.43626 83.6952 6.27765 83.5095 5.89728C83.3216 5.51691 83.4817 5.05987 83.8606 4.86743L85.2317 4.19314C85.6121 4.00371 86.0744 4.16082 86.2616 4.54269C86.4097 4.84413 86.3435 5.19818 86.1172 5.42595V5.42595Z" fill="#656D78"/>
<path d="M83.3617 6.78884C83.3061 6.84597 83.2384 6.89332 83.1632 6.93317L81.7763 7.62023C81.3945 7.80816 80.9322 7.65105 80.7457 7.26918C80.5571 6.88731 80.7149 6.43177 81.0968 6.23783L82.4747 5.55527C82.855 5.36659 83.3204 5.51994 83.5113 5.90031C83.6586 6.20551 83.5895 6.56107 83.3617 6.78884Z" fill="#656D78"/>
<path d="M80.5982 8.15907C80.5396 8.21696 80.4689 8.26507 80.3915 8.30641L79.0233 8.9807C78.643 9.17013 78.1807 9.01302 77.992 8.63265C77.801 8.25454 77.9529 7.78622 78.3378 7.6013L79.7142 6.92401C80.0976 6.73457 80.5599 6.89319 80.7455 7.27656C80.8936 7.58176 80.8245 7.93281 80.5982 8.15907Z" fill="#656D78"/>
<path d="M24.4676 81.1598C24.17 81.4582 23.4325 81.2131 22.8342 80.6148L16.3033 74.0839C15.7049 73.4847 15.7049 72.506 16.3033 71.9069L17.3917 70.8184C17.9894 70.22 18.9681 70.22 19.5672 70.8184C20.1663 71.4175 21.1451 72.3963 21.7457 72.9954V72.9969C22.3448 73.596 23.3235 74.5747 23.9226 75.1738C24.5225 75.773 25.5005 76.7517 26.1011 77.3508C26.6995 77.9484 26.6995 78.9272 26.1011 79.5263C25.502 80.1246 24.7691 80.8591 24.4676 81.1598Z" fill="#CCD1D9"/>
</g>
<defs>
<clipPath id="clip0">
<rect width="97" height="97" fill="white"/>
</clipPath>
</defs>
</svg>
