<svg width="97" height="97" viewBox="0 0 97 97" fill="none" xmlns="http://www.w3.org/2000/svg">
<path d="M7.88649 26.083C7.88649 26.083 11.664 25.3552 14.4203 29.4663C14.4203 29.4663 10.5803 37.1689 10.5803 45.1466C10.5803 53.1243 13.9993 59.4443 13.9993 59.4443L24.1528 94.2562C24.1528 94.2562 23.9455 94.8433 21.6662 95.8793C19.3868 96.9154 18.1436 97.1226 16.6931 96.2938C15.2426 95.4649 10.0622 91.3898 8.26631 85.1042C6.47039 78.8186 5.43432 75.2962 5.29632 66.8694C5.29632 66.8694 2.32633 58.7883 2.25712 53.1243C2.18812 47.4606 2.32612 42.2802 3.5694 37.5143C4.81268 32.7484 7.88649 26.083 7.88649 26.083Z" fill="#E6E9ED"/>
<path d="M7.88618 26.083C7.88618 26.083 9.30249 26.3715 10.4223 26.9098C10.4223 26.9098 4.82564 36.2325 4.15634 46.4935C3.53469 56.0254 5.86108 60.3074 7.51257 64.3137C9.16407 68.32 8.09339 70.7375 8.197 73.9494C8.30061 77.1612 9.80601 85.0353 13.1975 89.8012C16.5889 94.5671 20.7517 96.2706 20.7517 96.2706C20.7517 96.2706 18.436 97.4117 16.9663 96.4389C15.4965 95.466 9.99727 91.5843 8.26621 85.1045C6.53515 78.6247 5.70153 76.2643 5.49887 71.567C5.29622 66.8697 5.05585 67.2854 3.92508 62.5594C2.79432 57.8335 1.88299 53.746 2.24272 45.4575C2.60244 37.1689 7.88618 26.083 7.88618 26.083Z" fill="#C6CBCB"/>
<path d="M21.6658 95.8794C23.9452 94.8434 24.1524 94.2563 24.1524 94.2563L14.575 61.4192C14.575 61.4192 13.2737 62.1382 12.4448 62.6563C11.616 63.1743 10.3727 65.35 10.3727 68.6654C10.3727 71.9809 10.2691 75.3999 12.7556 82.1343C15.2422 88.8688 21.6658 95.8794 21.6658 95.8794Z" fill="#343434"/>
<path d="M24.1524 94.2563C24.1524 94.2563 23.9452 94.8434 21.6658 95.8794C21.6658 95.8794 15.2422 88.8688 12.7556 82.1343C10.2691 75.3999 10.3727 71.9809 10.3727 68.6654C10.3727 65.35 11.616 63.1743 12.4448 62.6563C13.2737 62.1382 14.575 61.4192 14.575 61.4192C14.575 61.4192 11.9817 62.6563 13.1974 71.7737C14.4131 80.891 18.5143 87.4479 20.1847 89.9575C22.2875 93.1166 24.1524 94.2563 24.1524 94.2563Z" fill="#656D78"/>
<path d="M18.5579 53.9531C18.5579 53.9531 17.2626 54.8856 17.2626 60.3767C17.2626 65.8679 18.9723 73.224 20.2156 77.3683C21.4589 81.5125 26.6392 94.9122 32.4412 95.8793C32.4412 95.8793 28.7113 98.0202 26.0175 95.4646C23.3238 92.9091 19.7319 87.1071 16.7965 79.4402C13.8612 71.7733 13.792 63.8304 13.9302 60.8602C14.0684 57.89 14.4136 56.3705 15.2424 55.6106C16.0713 54.8508 17.6598 54.1605 18.5579 53.9531Z" fill="#656D78"/>
<path d="M18.5577 53.9534C18.5577 53.9534 16.7964 54.6786 16.7964 60.1698C16.7964 65.661 18.6959 73.6387 19.9392 77.7829C21.1825 81.9272 26.639 94.9125 32.441 95.8795C32.441 95.8795 34.3577 94.7745 34.3059 93.1168C34.2541 91.459 21.8804 54.745 21.8804 54.745C21.8804 54.745 21.1479 53.539 18.5577 53.9534Z" fill="#343434"/>
<path d="M29.8705 96.6824C28.6686 96.816 27.237 96.6215 26.0175 95.4646C23.3238 92.909 19.7319 87.107 16.7965 79.4401C13.8612 71.7732 13.792 63.8303 13.9302 60.8601C14.0684 57.8899 14.4136 56.3704 15.2424 55.6106C15.58 55.3012 16.0437 55.0032 16.5353 54.7446C16.5353 54.7446 15.1046 55.4724 15.0354 60.1693C14.9662 64.8662 16.1047 72.5333 17.2624 76.5394C18.4201 80.5454 22.2879 88.6268 23.4622 90.4917C24.6365 92.3566 26.6062 95.0456 28.0379 95.8792C29.4695 96.7129 29.8705 96.6824 29.8705 96.6824Z" fill="#040404"/>
<path d="M18.8339 55.6799C19.9392 53.8798 20.6901 53.225 22.6328 52.5715C25.2575 51.6883 26.777 51.1904 29.54 53.4697C32.303 55.7491 36.1018 64.4521 38.174 70.6685C40.2461 76.8849 41.8348 85.5878 41.4894 87.9362C41.144 90.2845 40.3151 92.0112 38.0358 93.1855C35.7564 94.3598 33.3389 94.7052 32.0266 94.1526C30.7143 93.5999 25.134 88.564 21.8804 78.6493C18.6267 68.7345 17.3146 60.0316 18.8339 55.6799Z" fill="#040404"/>
<path d="M40.299 91.2881C40.9557 90.3548 41.2971 89.2417 41.4892 87.9362C41.8347 85.5879 40.2459 76.8849 38.1738 70.6685C36.1017 64.4521 32.3028 55.7491 29.5398 53.4698C29.5398 53.4698 28.0201 52.5029 27.0531 53.4698C26.086 54.4366 26.9149 60.3768 27.6747 63.7612C28.4346 67.1456 30.5757 73.9839 31.819 77.3683C33.0623 80.7527 36.7231 88.3504 38.3116 90.3536C39.9001 92.3567 40.299 91.2881 40.299 91.2881Z" fill="#343434"/>
<path d="M33.2008 61.4574C34.5823 63.2779 36.7234 69.2179 37.7595 72.6716C38.7955 76.1252 40.0388 82.1342 38.5883 83.3085C37.1378 84.4827 33.8226 76.362 32.4411 72.3065C31.0596 68.2509 28.8748 59.6743 30.6452 58.8572C31.5431 58.4428 33.2008 61.4574 33.2008 61.4574Z" fill="#656D78"/>
<path d="M89.1139 26.083C89.1139 26.083 85.3364 25.3552 82.5803 29.4663C82.5803 29.4663 86.4202 37.1689 86.4202 45.1466C86.4202 53.1243 83.0011 59.4443 83.0011 59.4443L72.8477 94.2562C72.8477 94.2562 73.0549 94.8433 75.3342 95.8793C77.6136 96.9154 78.8569 97.1226 80.3074 96.2938C81.7578 95.4649 86.938 91.3898 88.7339 85.1042C90.5298 78.8186 91.5657 75.2962 91.7039 66.8694C91.7039 66.8694 94.6739 58.7883 94.7431 53.1243C94.8119 47.4606 94.6739 42.2802 93.4306 37.5143C92.1873 32.7484 89.1139 26.083 89.1139 26.083Z" fill="#E6E9ED"/>
<path d="M89.114 26.083C89.114 26.083 87.6975 26.3715 86.5781 26.9098C86.5781 26.9098 92.1748 36.2325 92.8439 46.4935C93.4655 56.0254 91.1391 60.3074 89.4876 64.3137C87.8363 68.32 88.9068 70.7375 88.8032 73.9494C88.6996 77.1612 87.1942 85.0353 83.8025 89.8012C80.411 94.5671 76.2485 96.2706 76.2485 96.2706C76.2485 96.2706 78.5644 97.4117 80.0339 96.4389C81.5039 95.466 87.0031 91.5843 88.734 85.1045C90.4649 78.6247 91.2987 76.2643 91.5013 71.567C91.704 66.8697 91.9442 67.2854 93.0751 62.5594C94.2061 57.8335 95.1172 53.746 94.7575 45.4575C94.3978 37.1689 89.114 26.083 89.114 26.083Z" fill="#C6CBCB"/>
<path d="M75.3342 95.8794C73.0549 94.8434 72.8477 94.2563 72.8477 94.2563L82.4253 61.4192C82.4253 61.4192 83.7264 62.1382 84.5552 62.6563C85.3841 63.1743 86.6274 65.35 86.6274 68.6654C86.6274 71.9809 86.731 75.3999 84.2444 82.1343C81.7578 88.8688 75.3342 95.8794 75.3342 95.8794Z" fill="#343434"/>
<path d="M72.8477 94.2563C72.8477 94.2563 73.0549 94.8434 75.3342 95.8794C75.3342 95.8794 81.7578 88.8688 84.2444 82.1343C86.731 75.3999 86.6274 71.9809 86.6274 68.6654C86.6274 65.35 85.3841 63.1743 84.5552 62.6563C83.7264 62.1382 82.4253 61.4192 82.4253 61.4192C82.4253 61.4192 85.0186 62.6563 83.8024 71.7737C82.5867 80.891 78.4857 87.4479 76.8152 89.9575C74.7126 93.1166 72.8477 94.2563 72.8477 94.2563Z" fill="#656D78"/>
<path d="M78.4424 53.9531C78.4424 53.9531 79.7379 54.8856 79.7379 60.3767C79.7379 65.8679 78.0279 73.224 76.7847 77.3683C75.5414 81.5125 70.3611 94.9122 64.5591 95.8793C64.5591 95.8793 68.2889 98.0202 70.9827 95.4646C73.6765 92.9091 77.2683 87.1071 80.2037 79.4402C83.1391 71.7733 83.2083 63.8304 83.0701 60.8602C82.9318 57.89 82.5866 56.3705 81.7578 55.6106C80.9289 54.8508 79.3404 54.1605 78.4424 53.9531Z" fill="#656D78"/>
<path d="M78.4421 53.9534C78.4421 53.9534 80.2034 54.6786 80.2034 60.1698C80.2034 65.661 78.3041 73.6387 77.0608 77.7829C75.8176 81.9272 70.3608 94.9125 64.5588 95.8795C64.5588 95.8795 62.6421 94.7745 62.6939 93.1168C62.7457 91.459 75.1195 54.745 75.1195 54.745C75.1195 54.745 75.852 53.539 78.4421 53.9534Z" fill="#343434"/>
<path d="M67.1294 96.6824C68.3314 96.816 69.7629 96.6215 70.9823 95.4646C73.6761 92.909 77.2679 87.107 80.2033 79.4401C83.1387 71.7732 83.2079 63.8303 83.0697 60.8601C82.9315 57.8899 82.5863 56.3704 81.7574 55.6106C81.4197 55.3012 80.9561 55.0032 80.4644 54.7446C80.4644 54.7446 81.895 55.4724 81.9642 60.1693C82.0334 64.8662 80.895 72.5333 79.7375 76.5394C78.5796 80.5454 74.7118 88.6268 73.5377 90.4917C72.3632 92.3566 70.3934 95.0456 68.962 95.8792C67.5306 96.7129 67.1294 96.6824 67.1294 96.6824Z" fill="#040404"/>
<path d="M78.166 55.6799C77.0607 53.8798 76.31 53.225 74.3674 52.5715C71.7426 51.6883 70.2231 51.1904 67.4601 53.4697C64.6971 55.7491 60.8983 64.4521 58.8262 70.6685C56.754 76.8849 55.1653 85.5878 55.5107 87.9362C55.8562 90.2845 56.685 92.0112 58.9644 93.1855C61.2437 94.3598 63.6613 94.7052 64.9736 94.1526C66.2858 93.5999 71.8663 88.564 75.1198 78.6493C78.3732 68.7345 79.6855 60.0316 78.166 55.6799Z" fill="#040404"/>
<path d="M56.7008 91.2881C56.0441 90.3548 55.7028 89.2417 55.5107 87.9362C55.1653 85.5879 56.754 76.8849 58.8262 70.6685C60.8983 64.4521 64.6971 55.7491 67.4601 53.4698C67.4601 53.4698 68.9798 52.5029 69.9469 53.4698C70.914 54.4366 70.0851 60.3768 69.3253 63.7612C68.5654 67.1456 66.4243 73.9839 65.181 77.3683C63.9377 80.7527 60.2769 88.3504 58.6884 90.3536C57.0997 92.3567 56.7008 91.2881 56.7008 91.2881Z" fill="#343434"/>
<path d="M63.7993 61.4574C62.418 63.2779 60.2766 69.2179 59.2406 72.6716C58.2045 76.1252 56.9612 82.1342 58.4117 83.3085C59.8622 84.4827 63.1772 76.362 64.5589 72.3065C65.9406 68.2509 68.1253 59.6743 66.3551 58.8572C65.457 58.4428 63.7993 61.4574 63.7993 61.4574Z" fill="#656D78"/>
<path d="M73.0549 8.98791C73.0549 8.98791 63.6097 2.31605 48.6037 0.824114V0.802979C48.5691 0.806294 48.5347 0.810231 48.5001 0.813546C48.4655 0.810231 48.4311 0.806294 48.3965 0.802979V0.824114C33.3907 2.31605 23.9453 8.98791 23.9453 8.98791C14.5171 14.4791 7.88623 26.083 7.88623 26.083C7.88623 26.083 8.9223 26.2902 10.6836 27.0155C12.4449 27.7407 14.1372 29.5021 14.1372 29.5021C14.1372 29.5021 16.5233 29.5217 22.5371 24.5103C28.5508 19.4988 28.7512 14.4874 34.9655 11.2801C40.7563 8.29126 47.595 7.91372 48.5003 7.87621C49.4056 7.91393 56.2443 8.29126 62.0351 11.2801C68.2492 14.4876 68.4498 19.4988 74.4635 24.5103C80.4773 29.5217 82.8632 29.5021 82.8632 29.5021C82.8632 29.5021 84.5553 27.7407 86.3166 27.0155C88.0779 26.2902 89.114 26.083 89.114 26.083C89.114 26.083 82.4831 14.4791 73.0549 8.98791Z" fill="#343434"/>
<path d="M96.0822 48.0476C96.0822 48.0476 96.7807 38.205 90.6679 26.601C84.5551 14.9971 75.1269 8.15903 67.6672 4.6364C60.7884 1.38792 53.6604 0 48.5 0C44.0264 0 36.2118 1.38792 29.3327 4.6364C21.873 8.15903 12.4448 14.9971 6.33201 26.601C0.219211 38.205 0.917728 48.0476 0.917728 48.0476L1.34687 48.3266L1.42768 49.2715L0.944458 49.6018C1.35889 58.9264 3.22381 63.6231 3.63823 65.0736C4.05266 66.5241 4.6053 69.5635 4.6743 72.5335C4.7433 75.5034 4.95052 80.5458 7.85151 86.624C10.7525 92.7022 14.2061 95.6034 16.0018 96.5702C17.7976 97.5371 19.3173 96.5702 19.3173 96.5702C16.9689 96.553 15.4318 95.3284 13.6361 93.2202C11.8404 91.112 10.1309 88.0051 8.54215 83.7226C6.95344 79.4401 5.91758 73.0855 5.98679 71.4968C6.056 69.9081 5.91758 66.5929 5.50316 65.0044C5.08873 63.4159 3.07524 58.762 2.80938 53.8148C2.54353 48.8676 2.5228 42.6647 4.6053 35.5802C6.6878 28.4958 9.64743 24.4599 13.1974 19.9702C16.7474 15.4805 23.2545 8.84968 32.7171 5.05083C41.1988 1.64569 48.4339 1.93869 48.5 1.93351C48.5661 1.93869 55.8009 1.64569 64.2826 5.05083C73.7454 8.84968 80.2523 15.4805 83.8023 19.9702C87.3525 24.4599 90.3124 28.4958 92.3949 35.5802C94.4771 42.6647 94.4564 48.8676 94.1906 53.8148C93.9247 58.762 91.9112 63.4159 91.4968 65.0044C91.0824 66.5929 90.9439 69.9081 91.0132 71.4968C91.0824 73.0855 90.0463 79.4401 88.4576 83.7226C86.8689 88.0051 85.1594 91.112 83.3637 93.2202C81.5679 95.3284 80.031 96.553 77.6827 96.5702C77.6827 96.5702 79.2022 97.5371 80.9981 96.5702C82.7938 95.6034 86.2472 92.7022 89.1482 86.624C92.0492 80.5458 92.2564 75.5034 92.3256 72.5335C92.3949 69.5635 92.9473 66.5241 93.3617 65.0736C93.7761 63.6231 95.6411 58.9264 96.0555 49.6018L95.5723 49.2712L95.6531 48.3264L96.0822 48.0476Z" fill="#656D78"/>
</svg>
