<svg width="21" height="21" viewBox="0 0 21 21" fill="none" xmlns="http://www.w3.org/2000/svg">
<path d="M14.0888 10.0554C14.0888 12.3135 12.2655 14.1439 10.0163 14.1439C7.76711 14.1439 5.94385 12.3135 5.94385 10.0554C5.94385 7.79727 7.76711 5.9668 10.0163 5.9668C12.2655 5.9668 14.0888 7.79727 14.0888 10.0554Z" fill="white"/>
<path d="M19.5403 2.82165C19.3445 2.28906 19.0322 1.807 18.6264 1.41131C18.2323 1.00389 17.7524 0.690337 17.2216 0.493796C16.7911 0.325938 16.1444 0.126138 14.9533 0.0717064C13.6647 0.0127116 13.2784 0 10.0162 0C6.75378 0 6.36744 0.0123857 5.07922 0.0713805C3.88806 0.126138 3.24102 0.325938 2.81086 0.493796C2.28005 0.690337 1.79988 1.00389 1.40608 1.41131C1.00026 1.807 0.687942 2.28874 0.491851 2.82165C0.324654 3.25384 0.125641 3.90344 0.0714239 5.0993C0.0126615 6.39263 0 6.78049 0 10.0558C0 13.3309 0.0126615 13.7187 0.0714239 15.0124C0.125641 16.2083 0.324654 16.8575 0.491851 17.2897C0.687942 17.8226 0.999935 18.3044 1.40575 18.7001C1.79988 19.1075 2.27972 19.421 2.81053 19.6176C3.24102 19.7857 3.88806 19.9855 5.07922 20.04C6.36744 20.099 6.75346 20.1114 10.0159 20.1114C13.2787 20.1114 13.665 20.099 14.9529 20.04C16.1441 19.9855 16.7911 19.7857 17.2216 19.6176C18.2871 19.2049 19.1293 18.3594 19.5403 17.2897C19.7075 16.8575 19.9065 16.2083 19.961 15.0124C20.0198 13.7187 20.0321 13.3309 20.0321 10.0558C20.0321 6.78049 20.0198 6.39263 19.961 5.0993C19.9068 3.90344 19.7078 3.25384 19.5403 2.82165ZM10.0162 16.3539C6.5512 16.3539 3.74229 13.5343 3.74229 10.0555C3.74229 6.57678 6.5512 3.75709 10.0162 3.75709C13.4809 3.75709 16.2899 6.57678 16.2899 10.0555C16.2899 13.5343 13.4809 16.3539 10.0162 16.3539ZM16.5379 4.98001C15.7282 4.98001 15.0717 4.32096 15.0717 3.50807C15.0717 2.69518 15.7282 2.03614 16.5379 2.03614C17.3476 2.03614 18.004 2.69518 18.004 3.50807C18.0037 4.32096 17.3476 4.98001 16.5379 4.98001Z" fill="white"/>
</svg>
