<svg width="9" height="10" viewBox="0 0 9 10" fill="none" xmlns="http://www.w3.org/2000/svg">
<path d="M8.94443 0.0410376C8.90927 0.0097975 8.86286 -0.00441757 8.81597 0.00120234L3.76875 0.664186C3.68767 0.67493 3.62694 0.744849 3.62694 0.82799V1.82255V2.51876V6.71451C3.32964 6.3517 2.85732 6.11566 2.32443 6.11566C1.42667 6.11566 0.696289 6.78294 0.696289 7.60329C0.696289 8.42363 1.42667 9.09091 2.32443 9.09091C3.22218 9.09091 3.95256 8.42363 3.95256 7.60329C3.95256 7.56494 3.94947 7.52725 3.94621 7.48973C3.94833 7.47899 3.95256 7.46923 3.95256 7.45799V2.66405L8.67416 2.04371V5.06143C8.37687 4.69878 7.90454 4.46275 7.37165 4.46275C6.4739 4.46275 5.74352 5.13003 5.74352 5.95037C5.74352 6.77071 6.4739 7.43799 7.37165 7.43799C8.26127 7.43799 8.98563 6.78245 8.99865 5.97236C8.99865 5.97021 8.99979 5.96839 8.99979 5.96624V1.85561V1.15956V0.165171C8.99979 0.117568 8.9796 0.0722777 8.94443 0.0410376Z" fill="white"/>
</svg>
