<svg width="25" height="21" viewBox="0 0 25 21" fill="none" xmlns="http://www.w3.org/2000/svg">
<path d="M24.6614 2.37949C23.7537 2.78328 22.7798 3.05713 21.7565 3.17938C22.8014 2.55123 23.6012 1.55488 23.9802 0.371304C23.0002 0.953018 21.9183 1.37542 20.7656 1.6044C19.8425 0.615778 18.5295 0 17.0732 0C14.2793 0 12.014 2.27431 12.014 5.07773C12.014 5.47533 12.0586 5.86367 12.145 6.23501C7.94099 6.02302 4.2132 4.00092 1.71824 0.928259C1.28211 1.6771 1.03401 2.54965 1.03401 3.48106C1.03401 5.24328 1.92782 6.79816 3.28396 7.70785C2.45486 7.68001 1.67509 7.45103 0.992422 7.07043V7.13386C0.992422 9.59382 2.7369 11.6469 5.05 12.1141C4.6262 12.2286 4.17931 12.2921 3.71699 12.2921C3.39031 12.2921 3.07438 12.2596 2.76462 12.1977C3.40876 14.2167 5.27654 15.6849 7.48951 15.7252C5.75889 17.0867 3.57676 17.8958 1.20664 17.8958C0.798274 17.8958 0.396034 17.8711 0 17.8262C2.23916 19.2697 4.89747 20.1114 7.75458 20.1114C17.061 20.1114 22.148 12.3725 22.148 5.66103L22.131 5.0035C23.125 4.29176 23.9849 3.39752 24.6614 2.37949Z" fill="white"/>
</svg>
